<?xml version="1.0" encoding="UTF-8" standalone="no"?>
<!-- Created with Inkscape (http://www.inkscape.org/) -->

<svg
   version="1.1"
   id="svg1180"
   width="1365.3333"
   height="1082.6667"
   viewBox="0 0 1365.3333 1082.6667"
   sodipodi:docname="1110598009.svg"
   inkscape:version="1.1 (c68e22c387, 2021-05-23)"
   xmlns:inkscape="http://www.inkscape.org/namespaces/inkscape"
   xmlns:sodipodi="http://sodipodi.sourceforge.net/DTD/sodipodi-0.dtd"
   xmlns="http://www.w3.org/2000/svg"
   xmlns:svg="http://www.w3.org/2000/svg">
  <defs
     id="defs1184" />
  <sodipodi:namedview
     id="namedview1182"
     pagecolor="#ffffff"
     bordercolor="#666666"
     borderopacity="1.0"
     inkscape:pageshadow="2"
     inkscape:pageopacity="0.0"
     inkscape:pagecheckerboard="0"
     showgrid="false"
     inkscape:zoom="0.75277088"
     inkscape:cx="682.14647"
     inkscape:cy="648.27162"
     inkscape:window-width="1902"
     inkscape:window-height="983"
     inkscape:window-x="32"
     inkscape:window-y="0"
     inkscape:window-maximized="0"
     inkscape:current-layer="g1186" />
  <g
     inkscape:groupmode="layer"
     inkscape:label="Image"
     id="g1186">
    <path
       style="fill:#0a080c;stroke:none;stroke-width:1.33333"
       d="m 381.33828,370.66668 c -2.336,15.13067 -21.2134,16.09467 -28,28 22.624,7.24 -3.884,24.68267 -13.072,36 -28.0427,34.53867 -53.38272,70.444 -75.05072,109.33334 -5.968,10.712 -12.15733,21.308 -18.16533,32 -2.37333,4.22533 -4.692,10.82666 -9.784,12.404 -9.47467,2.93733 -28.936,-6.46267 -38.59466,-8.744 -29.408,-6.94534 -59.244,-12.76267 -89.33334,-15.56 -9.54546,-0.888 -35.44466,-6.516 -41.33332,2.56666 l 166.66665,40.00001 c -4.27333,10.84533 -13.56266,38.38533 -24.284,43.844 -11.55466,5.88266 -40.32533,-3.29467 -53.04933,-4.79734 -34.76453,-4.104 -70.27826,-8.38 -105.33332,-8.38 -13.89227,0 -29.85427,-2.272 -42.6666699,4 13.3858699,9.30267 43.8147999,7.91467 59.9999999,9.55867 45.09959,4.58133 94.69199,7.608 138.66666,18.44133 -2.96267,12.44667 -3.91867,27.19734 -4.00134,40.00001 -0.0373,5.79466 0.224,13.728 -5.52399,17.09466 -10.38667,6.084 -30.55334,5.596 -42.47467,7.28667 -29.64747,4.20267 -60.04479,8.17467 -89.33333,14.44 -10.08053,2.156 -37.4636,0.72667 -41.33333,11.84533 l 85.33333,-7.88 77.33333,-6.78666 c -12.51867,29.908 -34.18533,57.904 -53.13067,84 C 92.65357,887.49203 47.71237,944.1147 22.10677,1012 14.39664,1032.4414 5.9209101,1054.0267 4.0049101,1076 H 137.33823 c 11.292,0 39.368,5.1374 48.65334,-1.3706 4.02,-2.8174 5.496,-10.476 7.952,-14.6294 6.552,-11.0826 15.48266,-21.3906 20.46266,-33.3333 3.63333,-8.7133 2.884,-19.3533 9.776,-26.4347 12.036,-12.36661 27.844,-22.80001 41.156,-33.89464 18.60667,-15.50666 37.00135,-33.44933 58.66665,-44.66 21.2414,-10.99067 44.82,-15.3 66.6667,-24.72667 22.42,-9.67466 43.084,-24.73066 66.6667,-31.56533 13.8253,-4.00667 29.0213,-0.836 42.5466,-4.476 14.2147,-3.82533 17.552,-25.71867 34.7867,-25.42533 48.2133,0.82266 96.9413,13.01066 145.3333,15.13066 21.9493,0.96134 44.876,1.048 66.6667,-1.66266 14.888,-1.85334 31.6826,-8.11067 46.66,-7.19467 8.1093,0.496 9.5746,10.92933 18.6733,12.57467 51.3853,9.29733 100.836,19.748 148,43.33066 48.84932,24.42401 101.77072,56.01334 139.87602,95.7227 6.2693,6.5346 6.2907,15.73061 11.7613,21.95061 11.072,12.5854 28.6814,17.9614 39.3147,32.664 4.7587,6.5787 7.8,25.588 14.752,28.916 5.0987,2.4414 14.2453,0.1 19.6293,-0.5346 13.448,-1.588 27.7934,-2.768 41.3334,-3.048 l -13.3334,-68 c -13.1373,3.976 -9.2506,30.3693 -13.1333,41.328 -1.5867,4.4773 -6.6973,12.0893 -12.1813,11.9506 -7.996,-0.2013 -21.2067,-21.0066 -26.6654,-26.612 -25.4706,-26.152 -50.5506,-52.01331 -78.6866,-75.41997 -48.7627,-40.56667 -104.70402,-72.37067 -165.33342,-91.21334 -26.2213,-8.148 -55.8466,-8.73733 -81.308,-17.82533 -10.2453,-3.65733 -6.3706,-19.19867 -17.3786,-21.764 -8.9774,-2.092 -22.804,3.07333 -31.98,4.32267 -17.6587,2.404 -36.8574,3.14666 -54.6667,3.232 -49.3093,0.23866 -98.8533,-4.752 -148,-8.11734 -16.4293,-1.12533 -32.84,-2.46933 -49.3333,-2.54933 -6.0014,-0.028 -12.872,-2.07333 -18.6467,0.0493 -9.9413,3.656 -10.8907,17.056 -21.3547,20.93334 -13.6973,5.07466 -30.9159,3.40133 -45.3319,6.284 -26.72,5.344 -51.8334,15.272 -76,27.74533 -22.62,11.676 -44.54,24.78533 -66.6667,37.364 -11.8307,6.72534 -23.97068,15.11867 -37.33335,18.292 7.22667,-48.936 53.16405,-83.82133 59.61465,-133.33334 2.644,-20.3 -6.8106,-34.51866 -8.9306,-53.33333 -0.716,-6.36 6.0986,-10.86667 4.5573,-17.27467 -2.0093,-8.36 -14.0227,-5.07466 -13.86,-14.732 0.2827,-16.77467 13.404,-32.45733 15.3147,-49.32667 0.92,-8.124 -3.228,-15.83066 -2.1667,-24 2.2027,-16.95066 12.7093,-33.67733 16.6027,-50.66667 9.8173,-42.84 11.6026,-89.97866 38.4133,-126.66667 18.728,-25.628 52.92,-42.99066 78.4547,-61.33333 -8.5734,-41.428 -47.308,-62.052 -64.132,-98.66667 -15.7494,-34.276 -19.332,-87.35467 -11.8627,-124 4.0333,-19.78667 13.5973,-36.92934 16.7627,-57.33334 5.5213,-35.600001 6.664,-75.089069 39.232,-97.333336 8.268,21.814134 25.7093,41.091335 35.588,62.666665 17.4719,38.156941 26.8866,81.049341 30.8519,122.666671 2.6027,27.304 -2.3506,54.30934 -0.6826,81.31334 0.2906,4.7 5.9466,6.792 5.9733,10.96533 0.029,4.68134 -6.2493,10.10267 -8.156,14.388 -5.5587,12.48534 -6.4413,26.16534 -0.908,38.66667 49.208,-12.73067 100.2227,-16.66533 150.6667,-20.11867 59.8026,-4.096 123.2733,-2.528 181.3333,14.02134 25.6133,7.30133 46.6093,21.064 70.6667,31.43067 3.8293,-12.83467 5.3933,-26.87467 8.6333,-40.00001 1.6027,-6.496 5.636,-14.68133 5.556,-21.31333 -0.093,-7.724 -12.272,-9.57467 -11.288,-17.16267 1.4307,-11.04266 23.632,0.664 24.7813,-12.216 0.7134,-7.98266 -3.1426,-17.428 -4.464,-25.308 -2.4306,-14.48533 -3.6106,-29.328 -3.9453,-44 -1.532,-67.10134 22.8453,-134.469741 76.7267,-176.000005 6.77862,17.883067 18.17862,33.124264 23.60402,52.000004 22.464,78.157331 17.428,195.233341 -68.93742,230.666671 l 11.1507,40.596 -9.8173,12.73734 c -8.1494,-2.40934 -26.3227,-1.00534 -22.344,12.00133 3.7706,12.32667 19.0026,15.724 29.0106,21.04133 12.5867,6.68534 23.4654,17.08 32.1494,28.29067 33.94932,43.83067 46.20262,97.92267 73.18402,145.33334 -15.148,5.12533 -43.1334,12.00667 -48,29.33333 12.2933,2.824 27.0106,-4.56266 38.6666,-8.444 4.5027,-1.5 12.268,-5.57466 16.9667,-3.288 8.02,3.904 13.9573,25.16534 17.7,33.06534 -15.0533,1.90266 -30.288,1.05733 -45.3333,3.23733 -3.988,0.57867 -13.9707,1.45467 -13.284,7.51067 0.7586,6.69466 12.1973,8.25466 17.284,9.40133 15.3613,3.46267 33.32,-3.6 47.856,0.28 5.3613,1.43067 13.1346,15.26667 12.152,20.70667 -0.788,4.36266 -6.0294,4.03333 -9.3414,3.62 -10.6706,-1.33067 -21.1693,-3.032 -32,-1.94934 -4.3573,0.43467 -12.5093,3.08667 -10.9973,9.036 1.3787,5.432 9.3267,5.38134 13.664,6.056 13.136,2.044 30.3907,1.848 42.6133,7.072 8.016,3.42534 12.652,14.89601 17.4347,21.69601 9.2213,13.108 21.0147,24.16266 31.7253,36 12.4947,13.80933 25.532,27.01466 35.768,42.66666 18.8387,28.80534 32.5734,60.78534 51.816,89.33334 18.288,27.13067 43.7254,48.77067 60.0734,77.33336 12.3613,21.5986 19.8773,46.28931 29.1026,69.33331 4.1734,10.432 7.8,24.884 16.8,32 7.24,-24.472 -3.4933,-54.268 -14.3333,-76.00001 -24.812,-49.74266 -64.472,-88.48799 -94.54,-134.66666 -18.0267,-27.68533 -29.536,-60.96 -50.4173,-86.66667 -18.3707,-22.616 -50.948,-40.484 -59.376,-69.33333 l 182.6666,18.66666 c -8.6293,-9.372 -26.732,-11.87866 -38.6666,-15.228 -36.7707,-10.31733 -74.6774,-12.74 -112,-19.7 -19.14,-3.56933 -46.628,0.48933 -51.092,-25.04667 -1.1614,-6.64666 6.5546,-6.66 11.092,-6.69066 12.752,-0.088 26.0093,1.09466 38.6666,-0.56667 52.7654,-6.928 108.3107,2.28933 160,-14.10133 v -2.66667 c -15.5173,-4.58667 -35.832,-1.33333 -52,-1.33333 -36.888,0 -73.7613,0.65466 -110.6666,1.36666 -13.8254,0.26667 -27.4907,1.3 -41.3334,1.3 -4.8226,0 -12.5533,1.42134 -16.776,-1.37066 -8.8106,-5.82534 -16.8386,-32.584 -19.224,-42.62934 11.06,-0.96533 21.5454,-6.292 32,-9.77733 23.6894,-7.89867 47.032,-16.832 70.6667,-24.88534 10.1253,-3.44933 30.2467,-6.496 36,-16.004 -32.232,0 -61.7067,7.20934 -92,18.11467 -11.4667,4.12933 -23.1053,7.80933 -34.6667,11.66267 -4.1066,1.36933 -10.1133,4.648 -14.5226,3.65066 -6.3387,-1.43333 -9.6894,-14.828 -12.0214,-20.09466 -8.812,-19.89734 -19.5266,-38.88 -31.0933,-57.33334 -16.8707,-26.916 -36.7747,-52.28267 -56.26132,-77.33333 -5.596,-7.19334 -22.2814,-22.796 -22.6174,-31.94134 -0.3573,-9.704 20.0614,-6.20933 22.5787,-16.184 2.756,-10.92133 -14.724,-11.27067 -12.6187,-21.21333 5.5907,-26.41467 32.95072,-43.24 45.36942,-66.66134 33,-62.23867 34.4173,-147.61734 12.2973,-213.333341 -6.5613,-19.489331 -16.6587,-36.497864 -31.1093,-51.105998 -5.48142,-5.540534 -11.74672,-12.397827 -20.00142,-13.274694 -23.5106,-2.49748 -44.98,28.201361 -53.9853,45.714028 -14.736,28.657864 -27.0507,58.573065 -40.12,88.000005 -14.0867,31.71733 -30.96,65.968 -32.5093,101.33333 -0.504,11.50934 -0.4894,23.30267 1.388,34.66667 1.1826,7.15334 4.7733,16.232 3.8973,23.43467 -0.6267,5.14667 -4.976,9.29333 -7.0587,13.89867 -2.416,5.34133 -1.764,17.768 -9.352,18.57066 -10.4813,1.10934 -23.936,-3.572 -34.26,-5.49866 -16.58,-3.09334 -33.8813,-4.57467 -50.6666,-6.17867 -51.0547,-4.87867 -105.1174,-5.78933 -156,1.28 -19.704,2.73867 -39.232,5.172 -58.6667,9.62533 -5.848,1.34 -16.9013,5.23334 -21.8173,0.392 -4.276,-4.212 -10.84,-15.532 -6.812,-21.064 3.4586,-4.752 14.272,-9.81333 12.668,-16.88133 -1.3667,-6.02533 -9.1534,-8.10133 -10.4014,-14.91333 -3.2106,-17.53734 0.7947,-36.87201 -0.424,-54.66534 -3.6946,-53.95867 -9.7706,-108.84254 -32.6,-158.666671 -12.0679,-26.337468 -31.9573,-72.769696 -67.2799,-64.334389 -32.072,7.659054 -49.444,37.266255 -61.148,65.667719 -26.5947,64.533341 -24.884,137.170671 -21.5707,205.333341 0.7907,16.26267 0.18,39.82934 7.4827,54.64667 3.1093,6.31067 12.112,7.30667 14.508,13.37733 2.5586,6.48667 -9.092,10.73067 -9.0907,17.16534 0,9.7 27.4507,8.144 33.8187,8.144 m 41.3333,128.58534 c -26.04,4.05866 -48.8973,18.404 -61.48,42.08133 -18.3027,34.43733 -1.7533,76.748 36.1467,87.42934 12.6293,3.55866 28.4173,3.336 41.3333,1.31866 24.4987,-3.82666 52.6866,-13.36266 66.4946,-35.41467 34.376,-54.90133 -31.1719,-103.41333 -82.4946,-95.41466 m 497.3333,1.31333 c -19.988,2.65733 -40.2693,7.976 -54.4347,23.45467 -22.636,24.73333 -23.5933,73.50133 3.7734,95.28933 17.56,13.98134 40,15.34267 61.328,12.31067 26.884,-3.82267 52.2346,-19.78133 63.5826,-44.95334 15.00002,-33.27333 -3.004,-76.46266 -39.5826,-84.44266 -11.1507,-2.432 -23.34,-3.164 -34.6667,-1.65867 m -480,6.48667 c 41.6373,-4.41734 76.5907,35.68133 59.3,75.61466 -10.836,25.02401 -37.564,37.05467 -63.3,39.77867 -17.408,1.84267 -38.6226,0.57334 -53.3333,-9.96133 -23.128,-16.564 -26.608,-54.18934 -10.0133,-76.464 16.3933,-22.00667 42.036,-26.28267 67.3466,-28.968 m 457.3333,8.948 v 1.33333 c -6.256,3.476 -12.856,7.41067 -15.1293,14.668 -5.908,18.85067 21.8,39.81333 39.1293,36.57333 19.5867,-3.66133 25.1734,-33.38666 12.88,-47.10133 -8.0733,-9.00667 -20.636,-6.80667 -31.5466,-6.80667 v -2.66666 c 8.4626,0.0173 14.672,-3.27467 22.6666,-3.92267 17.7067,-1.43733 39.2294,6.796 50.908,20.15067 30.19472,34.52533 5.072,90.84933 -40.2413,93.052 -27.2213,1.32267 -58.092,-6.74133 -71.3093,-33.28 -12.9467,-25.99867 -1.1254,-70.248 32.6426,-72 m -451.9999,-3.38 c -13.208,2.38 -24.4374,10.004 -28.2814,23.38 -5.6653,19.716 13.3987,35.98933 32.2814,33.048 34.3679,-5.352 36.8346,-63.788 -4,-56.428 m 142.6666,50.04666 114.6667,-17.33333 44,5.05733 25.3333,4.276 c -10.464,-12.628 -28.7987,-14.496 -44,-16.56533 -18.4867,-2.516 -36.388,2.26 -54.6667,1.548 -7.748,-0.30267 -14.9066,-4.29333 -22.6666,-4.86267 -21.8107,-1.59866 -50.724,8.94667 -62.6667,27.88 m 42.6667,24 c 16.836,2.17467 33.6013,6.428 50.6666,6.428 23.4614,0 46.84,-9.004 68,-18.428 -7.4666,-6.18533 -17.3546,-8.41466 -26.6666,-10.38533 -27.0334,-5.72533 -77.8094,-8.02533 -92,22.38533 m 81.3333,192.00001 c -7.42,-12.132 -26.9653,-12.80533 -36.8747,-3.29067 -9.4,9.02667 1.028,11.32934 8.8747,9.676 3.564,-0.75066 7.1147,-1.59466 10.6667,-2.4 5.792,-1.31333 11.4973,-2.85333 17.3333,-3.98533 m -170.6667,258.66674 c 14.8667,0.1226 28.1094,2.7693 42.6667,-2.2614 24.6307,-8.5106 47.7453,-27.716 74.6667,-28.3853 41.9373,-1.044 80.112,29.312 120,39.98 -10.7707,-45.3493 -51.284,-92.83867 -97.3334,-103.68534 -59.6666,-14.05333 -139.8133,26.47063 -140,94.35204 m 294.6667,8 c 43.5413,10.396 75.5467,-29.6374 117.3333,-23.6 25.196,3.64 35.612,29.816 53.33472,44.4946 9.704,8.0387 22.5507,8.816 34.6653,9.772 -7.492,-32.6826 -16.8106,-71.0906 -45.33332,-92.10131 -52.3987,-38.59733 -135.1013,11.3827 -160,61.43471 m -574.66665,20 c 40.56405,5.1266 63.64535,-26.7187 101.33335,-31.6147 31.536,-4.096 58.94,18.4227 90.6667,4.948 -2.324,-12.3387 -4.6534,-23.9373 -11.5987,-34.6667 -31.6933,-48.9573 -104.7107,-25.92131 -141.7347,3.744 -17.02132,13.6374 -37.65732,34.4294 -38.66665,57.5894 z"
       id="path1208" />
  </g>
</svg>
